<svg width="19" height="19" viewBox="0 0 19 19" fill="none" xmlns="http://www.w3.org/2000/svg">
<path fill-rule="evenodd" clip-rule="evenodd" d="M9.5835 0.833496C7.20641 0.833496 6.91037 0.843704 5.97558 0.887454C2.79641 1.03329 1.03183 2.79641 0.885996 5.97558C0.843704 6.91037 0.833496 7.20787 0.833496 9.5835C0.833496 11.9606 0.843704 12.2581 0.885996 13.1914C1.03183 16.3691 2.79641 18.1352 5.97558 18.281C6.91037 18.3233 7.20641 18.3335 9.5835 18.3335C11.9606 18.3335 12.2581 18.3233 13.1929 18.281C16.3662 18.1352 18.1381 16.372 18.281 13.1914C18.3233 12.2581 18.3335 11.9606 18.3335 9.5835C18.3335 7.20787 18.3233 6.91037 18.281 5.97558C18.1381 2.80079 16.372 1.03183 13.1929 0.887454C12.2581 0.843704 11.9606 0.833496 9.5835 0.833496ZM9.58321 2.4113C11.9195 2.4113 12.1965 2.42005 13.1197 2.46234C15.4924 2.57025 16.5978 3.69463 16.7072 6.04838C16.748 6.9715 16.7568 7.24713 16.7568 9.58338C16.7568 11.9196 16.748 12.1967 16.7072 13.1184C16.5978 15.4707 15.4938 16.598 13.1197 16.7059C12.1965 16.7467 11.9209 16.7569 9.58321 16.7569C7.24696 16.7569 6.96988 16.7482 6.04821 16.7059C3.67113 16.5965 2.57008 15.4678 2.46071 13.1184C2.41988 12.1967 2.40967 11.9196 2.40967 9.58338C2.40967 7.24713 2.41988 6.97005 2.46071 6.04838C2.56863 3.69317 3.67404 2.5688 6.04821 2.46088C6.96988 2.41859 7.24696 2.4113 9.58321 2.4113ZM5.09033 9.58346C5.09033 7.10137 7.10283 5.09033 9.58346 5.09033C12.0641 5.09033 14.0766 7.10283 14.0766 9.58346C14.0766 12.0655 12.0641 14.0766 9.58346 14.0766C7.10283 14.0766 5.09033 12.0655 5.09033 9.58346ZM9.58333 12.5C7.97187 12.5 6.66667 11.1948 6.66667 9.58333C6.66667 7.97333 7.97187 6.66667 9.58333 6.66667C11.1933 6.66667 12.5015 7.97187 12.5015 9.58333C12.5015 11.1948 11.1933 12.5 9.58333 12.5ZM13.2031 4.91353C13.2031 4.33311 13.6742 3.86353 14.2531 3.86353C14.835 3.86353 15.3046 4.33311 15.3046 4.91353C15.3046 5.49394 14.8335 5.96353 14.2531 5.96353C13.6727 5.96353 13.2031 5.49248 13.2031 4.91353Z" fill="#D2A650"/>
</svg>
